<svg width="20" height="20" viewBox="0 0 20 20" fill="none" xmlns="http://www.w3.org/2000/svg">
<path d="M7.65625 4.68727H8.82812V6.48414C8.82812 6.8123 9.0859 7.07008 9.41406 7.07008H10.5859C10.9141 7.07008 11.1719 6.8123 11.1719 6.48414V4.68727H12.3438C12.5547 4.68727 12.7539 4.57012 12.8594 4.38258C12.9649 4.1834 12.9532 3.9607 12.8359 3.77316L10.4921 0.24582C10.2695 -0.0822656 9.73047 -0.0822656 9.50781 0.24582L7.16406 3.77316C7.04684 3.9607 7.03512 4.18336 7.14059 4.38258C7.24613 4.57012 7.44531 4.68727 7.65625 4.68727ZM19.7422 9.50762L16.2266 7.16387C16.0391 7.04664 15.8164 7.03492 15.6172 7.14039C15.4296 7.2459 15.3125 7.44508 15.3125 7.65602V8.82789H13.5156C13.1875 8.82789 12.9297 9.08566 12.9297 9.41383V10.5857C12.9297 10.9139 13.1875 11.1716 13.5156 11.1716H15.3125V12.3435C15.3125 12.5545 15.4296 12.7536 15.6172 12.8591C15.83 12.9655 16.0279 12.946 16.2266 12.8357L19.7422 10.4919C19.9062 10.3748 20 10.199 20 9.99977C20 9.80055 19.9062 9.62477 19.7422 9.50762ZM12.3438 15.3123H11.1719V13.5154C11.1719 13.1872 10.9141 12.9295 10.5859 12.9295H9.41406C9.0859 12.9295 8.82812 13.1872 8.82812 13.5154V15.3123H7.65625C7.44531 15.3123 7.24613 15.4294 7.14063 15.617C7.03512 15.8161 7.04684 16.0388 7.1641 16.2264L9.50785 19.742C9.625 19.906 9.80082 19.9998 10 19.9998C10.1992 19.9998 10.375 19.906 10.4921 19.742L12.8359 16.2264C12.9531 16.0388 12.9648 15.8162 12.8594 15.617C12.7539 15.4294 12.5547 15.3123 12.3438 15.3123ZM7.07031 9.41383C7.07031 9.08566 6.81254 8.82789 6.48438 8.82789H4.6875V7.65602C4.6875 7.44508 4.57035 7.2459 4.38281 7.14039C4.18363 7.03488 3.96094 7.0466 3.7734 7.16387L0.257773 9.50762C0.0937891 9.62477 0 9.80059 0 9.99977C0 10.1989 0.0937891 10.3748 0.257773 10.4919L3.7734 12.8357C3.97164 12.9457 4.16957 12.9657 4.38281 12.8591C4.57035 12.7536 4.6875 12.5545 4.6875 12.3435V11.1716H6.48438C6.81254 11.1716 7.07031 10.9139 7.07031 10.5857V9.41383Z" fill="url(#paint0_linear_13917_899)"/>
<defs>
<linearGradient id="paint0_linear_13917_899" x1="10" y1="19.9998" x2="10" y2="-0.000234604" gradientUnits="userSpaceOnUse">
<stop stop-color="#FD5900"/>
<stop offset="1" stop-color="#FFDE00"/>
</linearGradient>
</defs>
</svg>
