<svg width="42" height="42" viewBox="0 0 42 42" fill="none" xmlns="http://www.w3.org/2000/svg">
<rect x="1.5" y="1.5" width="39" height="39" rx="11.5" fill="#1C1C1C" stroke="url(#paint0_linear_11910_9001)" stroke-width="3"/>
<g clip-path="url(#clip0_11910_9001)">
<path d="M16.8388 12.8838V25.6592C16.0954 24.9961 15.1158 24.5923 14.0435 24.5923C11.7255 24.5923 9.83972 26.4782 9.83972 28.7962C9.83972 31.1142 11.7255 33 14.0435 33C16.3586 33 18.2425 31.1189 18.2473 28.8049H18.2473V18.5379L30.7516 15.3681V22.2679C30.0082 21.6048 29.0286 21.201 27.9564 21.201C25.6383 21.201 23.7525 23.0868 23.7525 25.4048C23.7525 27.7228 25.6383 29.6086 27.9564 29.6086C30.2743 29.6086 32.1601 27.7228 32.1601 25.4048V9L16.8388 12.8838Z" fill="white"/>
</g>
<rect x="3.5" y="3.5" width="35" height="35" rx="9.5" stroke="url(#paint1_linear_11910_9001)"/>
<g style="mix-blend-mode:overlay">
<rect x="5" y="5" width="32" height="20" rx="8" fill="url(#paint2_linear_11910_9001)"/>
</g>
<path d="M9 32L31 10" stroke="#FF0000" stroke-width="5" stroke-linecap="round"/>
<defs>
<linearGradient id="paint0_linear_11910_9001" x1="21" y1="3" x2="21" y2="39" gradientUnits="userSpaceOnUse">
<stop stop-color="#FFD600"/>
<stop offset="0.235" stop-color="#893100"/>
<stop offset="0.575" stop-color="#FFE600"/>
<stop offset="1" stop-color="#FF9900"/>
</linearGradient>
<linearGradient id="paint1_linear_11910_9001" x1="21" y1="3" x2="21" y2="39" gradientUnits="userSpaceOnUse">
<stop stop-color="#FF8A00"/>
<stop offset="0.235" stop-color="#D4CB00"/>
<stop offset="0.575" stop-color="#BC6600"/>
<stop offset="1" stop-color="#FFE600"/>
</linearGradient>
<linearGradient id="paint2_linear_11910_9001" x1="21" y1="5" x2="21" y2="25" gradientUnits="userSpaceOnUse">
<stop stop-color="white"/>
<stop offset="1" stop-color="white" stop-opacity="0"/>
</linearGradient>
<clipPath id="clip0_11910_9001">
<rect width="24" height="24" fill="white" transform="translate(9 9)"/>
</clipPath>
</defs>
</svg>
