<svg width="42" height="42" viewBox="0 0 42 42" fill="none" xmlns="http://www.w3.org/2000/svg">
<rect x="1.5" y="1.5" width="39" height="39" rx="11.5" fill="#1C1C1C" stroke="url(#paint0_linear_11910_9002)" stroke-width="3"/>
<g clip-path="url(#clip0_11910_9002)">
<path d="M20.0218 12.6243V29.3437C20.0255 29.6568 19.9082 29.9593 19.6944 30.1881C19.578 30.3146 19.4375 30.4164 19.2811 30.4876C19.125 30.557 18.9569 30.5957 18.7861 30.6014C18.614 30.6057 18.4429 30.5751 18.283 30.5116C18.1228 30.4498 17.9773 30.3553 17.8558 30.2341L14.6616 27.0399C13.7248 26.1093 12.4585 25.5863 11.1381 25.5846H10.5532C10.1372 25.5731 9.74221 25.3998 9.45214 25.1016C9.16206 24.8033 8.99984 24.4036 9 23.9875V17.9626C9.01209 17.5548 9.17972 17.1672 9.46852 16.8791C9.75733 16.5911 10.1454 16.4244 10.5532 16.4134H11.1521C12.4729 16.4118 13.7395 15.8879 14.6756 14.9561L17.8697 11.7619C17.988 11.6443 18.1285 11.5513 18.283 11.4884C18.4417 11.4254 18.6114 11.3948 18.7821 11.3986C18.9535 11.403 19.1222 11.4419 19.2782 11.5129C19.4343 11.5839 19.5745 11.6855 19.6904 11.8118C19.8954 12.0337 20.0132 12.3224 20.0218 12.6243ZM32.447 17.204C31.9924 15.7255 31.2771 14.3402 30.3349 13.1134C30.2011 12.9481 30.0346 12.8122 29.8458 12.7142C29.6558 12.616 29.4481 12.5569 29.2349 12.5405C29.0212 12.5255 28.8067 12.5546 28.6048 12.626C28.4028 12.6975 28.2178 12.8097 28.0611 12.9557C27.9213 13.0953 27.81 13.2607 27.7337 13.4428C27.6571 13.6248 27.6184 13.8204 27.6199 14.0178C27.6218 14.3579 27.7362 14.6878 27.9453 14.9561C29.2686 16.6881 29.9855 18.8073 29.9855 20.987C29.9855 23.1667 29.2686 25.2859 27.9453 27.018C27.7357 27.286 27.6212 27.616 27.6199 27.9562C27.6188 28.1536 27.6575 28.3491 27.7337 28.5312C27.8096 28.713 27.9209 28.8779 28.0611 29.0163C28.2171 29.1634 28.4021 29.2762 28.6042 29.3477C28.8063 29.4192 29.0211 29.4478 29.2349 29.4315C29.4485 29.4171 29.6566 29.358 29.8458 29.2579C30.0342 29.1593 30.2006 29.0235 30.3349 28.8586C31.5827 27.2272 32.4249 25.3227 32.7922 23.3019C33.1594 21.2811 33.0411 19.202 32.447 17.2359V17.204ZM26.0747 17.5872C25.9584 17.3936 25.8001 17.2285 25.6115 17.1041C25.4217 16.9813 25.2067 16.9028 24.9824 16.8745C24.7581 16.8461 24.5303 16.8687 24.3159 16.9404C24.1025 17.0137 23.9081 17.1338 23.747 17.2918C23.5194 17.5295 23.3734 17.8335 23.3299 18.1597C23.2865 18.4859 23.348 18.8175 23.5054 19.1065C23.8154 19.6825 23.976 20.3269 23.9725 20.981C23.9748 21.6332 23.8121 22.2753 23.4994 22.8476C23.3418 23.1362 23.2803 23.4675 23.3237 23.7935C23.3672 24.1194 23.5133 24.423 23.741 24.6603C23.902 24.818 24.0964 24.9374 24.3099 25.0096C24.6324 25.1203 24.983 25.1176 25.3038 25.0022C25.6247 24.8868 25.8966 24.6655 26.0747 24.3748C26.6597 23.3394 26.9671 22.1703 26.9671 20.981C26.9671 19.7918 26.6597 18.6227 26.0747 17.5872Z" fill="white"/>
</g>
<rect x="3.5" y="3.5" width="35" height="35" rx="9.5" stroke="url(#paint1_linear_11910_9002)"/>
<g style="mix-blend-mode:overlay">
<rect x="5" y="5" width="32" height="20" rx="8" fill="url(#paint2_linear_11910_9002)"/>
</g>
<path d="M9 32L31 10" stroke="#FF0000" stroke-width="5" stroke-linecap="round"/>
<defs>
<linearGradient id="paint0_linear_11910_9002" x1="21" y1="3" x2="21" y2="39" gradientUnits="userSpaceOnUse">
<stop stop-color="#FFD600"/>
<stop offset="0.235" stop-color="#893100"/>
<stop offset="0.575" stop-color="#FFE600"/>
<stop offset="1" stop-color="#FF9900"/>
</linearGradient>
<linearGradient id="paint1_linear_11910_9002" x1="21" y1="3" x2="21" y2="39" gradientUnits="userSpaceOnUse">
<stop stop-color="#FF8A00"/>
<stop offset="0.235" stop-color="#D4CB00"/>
<stop offset="0.575" stop-color="#BC6600"/>
<stop offset="1" stop-color="#FFE600"/>
</linearGradient>
<linearGradient id="paint2_linear_11910_9002" x1="21" y1="5" x2="21" y2="25" gradientUnits="userSpaceOnUse">
<stop stop-color="white"/>
<stop offset="1" stop-color="white" stop-opacity="0"/>
</linearGradient>
<clipPath id="clip0_11910_9002">
<rect width="24" height="24" fill="white" transform="translate(9 9)"/>
</clipPath>
</defs>
</svg>
