<svg width="120" height="65" viewBox="0 0 120 65" fill="none" xmlns="http://www.w3.org/2000/svg">
<g filter="url(#filter0_d_11908_5765)">
<path d="M63.4011 4.98174C62.0571 2.08775 57.9429 2.08775 56.5989 4.98174L51.6871 15.5582L40.1104 16.9613C36.9427 17.3452 35.6713 21.2581 38.0084 23.4306L46.5494 31.3704L44.3064 42.814C43.6927 45.9453 47.0212 48.3636 49.8096 46.8123L60 41.1428L70.1904 46.8123C72.9788 48.3636 76.3073 45.9453 75.6936 42.814L73.4506 31.3704L81.9916 23.4306C84.3286 21.2581 83.0573 17.3452 79.8896 16.9613L68.3129 15.5582L63.4011 4.98174ZM60.3646 40.9399C60.3642 40.9401 60.3638 40.9404 60.3634 40.9406L60.3646 40.9399Z" fill="url(#paint0_linear_11908_5765)" stroke="url(#paint1_linear_11908_5765)" stroke-width="4.5"/>
<path d="M62.7209 5.29764C61.6457 2.98245 58.3543 2.98245 57.2791 5.29764L52.1916 16.2526L40.2006 17.7059C37.6665 18.013 36.6494 21.1433 38.519 22.8813L47.3657 31.1051L45.0424 42.9583C44.5514 45.4633 47.2142 47.3979 49.4449 46.1569L60 40.2845L70.5551 46.1569C72.7858 47.3979 75.4486 45.4633 74.9576 42.9583L72.6343 31.1051L81.481 22.8813C83.3506 21.1433 82.3335 18.013 79.7994 17.7059L67.8084 16.2526L62.7209 5.29764Z" fill="url(#paint2_linear_11908_5765)" stroke="url(#paint3_linear_11908_5765)" stroke-width="3"/>
</g>
<g filter="url(#filter1_d_11908_5765)">
<path d="M85.3389 40.6204L86.3602 39.5218L85.3389 40.6204L91.0329 45.9136L89.5376 53.5427C89.1285 55.6302 91.3475 57.2424 93.2064 56.2082L100 52.4285L106.794 56.2082C108.653 57.2424 110.872 55.6302 110.462 53.5427L108.967 45.9136L114.661 40.6204C116.219 39.1721 115.372 36.5635 113.26 36.3075L105.542 35.3722L102.267 28.3212C101.371 26.3918 98.6286 26.3918 97.7326 28.3212L94.4581 35.3722L86.7403 36.3075C84.6285 36.5635 83.7809 39.1721 85.3389 40.6204ZM100.243 52.2933C100.243 52.2934 100.243 52.2936 100.242 52.2937L100.243 52.2933ZM99.7578 52.2937C99.7575 52.2936 99.7572 52.2934 99.7569 52.2933L99.7578 52.2937ZM108.914 45.6406C108.914 45.6409 108.914 45.6413 108.914 45.6416L108.914 45.6406ZM94.3409 35.6245C94.341 35.6242 94.3411 35.624 94.3412 35.6238L94.3409 35.6245L94.7944 35.8351L94.3409 35.6245Z" fill="url(#paint4_linear_11908_5765)" stroke="url(#paint5_linear_11908_5765)" stroke-width="3"/>
<path d="M101.814 28.5318C101.097 26.9883 98.9029 26.9883 98.1861 28.5318L94.7944 35.8351L86.8004 36.8039C85.111 37.0087 84.4329 39.0956 85.6794 40.2542L91.5771 45.7368L90.0283 53.6388C89.701 55.3089 91.4762 56.5986 92.9633 55.7713L100 51.8563L107.037 55.7713C108.524 56.5986 110.299 55.3089 109.972 53.6388L108.423 45.7368L114.321 40.2542C115.567 39.0956 114.889 37.0087 113.2 36.8039L105.206 35.8351L101.814 28.5318Z" fill="url(#paint6_linear_11908_5765)" stroke="url(#paint7_linear_11908_5765)" stroke-width="2"/>
</g>
<g filter="url(#filter2_d_11908_5765)">
<path d="M5.33892 40.6204L6.36021 39.5218L5.33893 40.6204L11.0329 45.9136L9.53762 53.5427C9.12846 55.6302 11.3475 57.2424 13.2064 56.2082L20 52.4285L26.7936 56.2082C28.6525 57.2424 30.8715 55.6302 30.4624 53.5427L28.9671 45.9136L34.6611 40.6204C36.2191 39.1721 35.3715 36.5635 33.2597 36.3075L25.5419 35.3722L22.2674 28.3212C21.3714 26.3918 18.6286 26.3918 17.7326 28.3212L14.4581 35.3722L6.74027 36.3075C4.62848 36.5635 3.7809 39.1721 5.33892 40.6204ZM20.2431 52.2933C20.2428 52.2934 20.2425 52.2936 20.2422 52.2937L20.2431 52.2933ZM19.7578 52.2937C19.7575 52.2936 19.7572 52.2934 19.7569 52.2933L19.7578 52.2937ZM28.9135 45.6406C28.9136 45.6409 28.9137 45.6413 28.9138 45.6416L28.9135 45.6406ZM14.3409 35.6245C14.341 35.6242 14.3411 35.624 14.3412 35.6238L14.3409 35.6245L14.7944 35.8351L14.3409 35.6245Z" fill="url(#paint8_linear_11908_5765)" stroke="url(#paint9_linear_11908_5765)" stroke-width="3"/>
<path d="M21.8139 28.5318C21.0971 26.9883 18.9029 26.9883 18.1861 28.5318L14.7944 35.8351L6.80043 36.8039C5.111 37.0087 4.43293 39.0956 5.67935 40.2542L11.5771 45.7368L10.0283 53.6388C9.70095 55.3089 11.4762 56.5986 12.9633 55.7713L20 51.8563L27.0367 55.7713C28.5238 56.5986 30.299 55.3089 29.9717 53.6388L28.4229 45.7368L34.3206 40.2542C35.5671 39.0956 34.889 37.0087 33.1996 36.8039L25.2056 35.8351L21.8139 28.5318Z" fill="url(#paint10_linear_11908_5765)" stroke="url(#paint11_linear_11908_5765)" stroke-width="2"/>
</g>
<defs>
<filter id="filter0_d_11908_5765" x="30.0544" y="0.561279" width="59.8911" height="57.9891" filterUnits="userSpaceOnUse" color-interpolation-filters="sRGB">
<feFlood flood-opacity="0" result="BackgroundImageFix"/>
<feColorMatrix in="SourceAlpha" type="matrix" values="0 0 0 0 0 0 0 0 0 0 0 0 0 0 0 0 0 0 127 0" result="hardAlpha"/>
<feOffset dy="4.5"/>
<feGaussianBlur stdDeviation="2.25"/>
<feComposite in2="hardAlpha" operator="out"/>
<feColorMatrix type="matrix" values="0 0 0 0 0 0 0 0 0 0 0 0 0 0 0 0 0 0 0.35 0"/>
<feBlend mode="normal" in2="BackgroundImageFix" result="effect1_dropShadow_11908_5765"/>
<feBlend mode="normal" in="SourceGraphic" in2="effect1_dropShadow_11908_5765" result="shape"/>
</filter>
<filter id="filter1_d_11908_5765" x="80.0361" y="25.3741" width="39.9277" height="38.6594" filterUnits="userSpaceOnUse" color-interpolation-filters="sRGB">
<feFlood flood-opacity="0" result="BackgroundImageFix"/>
<feColorMatrix in="SourceAlpha" type="matrix" values="0 0 0 0 0 0 0 0 0 0 0 0 0 0 0 0 0 0 127 0" result="hardAlpha"/>
<feOffset dy="3"/>
<feGaussianBlur stdDeviation="1.5"/>
<feComposite in2="hardAlpha" operator="out"/>
<feColorMatrix type="matrix" values="0 0 0 0 0 0 0 0 0 0 0 0 0 0 0 0 0 0 0.35 0"/>
<feBlend mode="normal" in2="BackgroundImageFix" result="effect1_dropShadow_11908_5765"/>
<feBlend mode="normal" in="SourceGraphic" in2="effect1_dropShadow_11908_5765" result="shape"/>
</filter>
<filter id="filter2_d_11908_5765" x="0.0361328" y="25.3741" width="39.9277" height="38.6594" filterUnits="userSpaceOnUse" color-interpolation-filters="sRGB">
<feFlood flood-opacity="0" result="BackgroundImageFix"/>
<feColorMatrix in="SourceAlpha" type="matrix" values="0 0 0 0 0 0 0 0 0 0 0 0 0 0 0 0 0 0 127 0" result="hardAlpha"/>
<feOffset dy="3"/>
<feGaussianBlur stdDeviation="1.5"/>
<feComposite in2="hardAlpha" operator="out"/>
<feColorMatrix type="matrix" values="0 0 0 0 0 0 0 0 0 0 0 0 0 0 0 0 0 0 0.35 0"/>
<feBlend mode="normal" in2="BackgroundImageFix" result="effect1_dropShadow_11908_5765"/>
<feBlend mode="normal" in="SourceGraphic" in2="effect1_dropShadow_11908_5765" result="shape"/>
</filter>
<linearGradient id="paint0_linear_11908_5765" x1="60" y1="3" x2="60" y2="51" gradientUnits="userSpaceOnUse">
<stop stop-color="#FFD600"/>
<stop offset="0.275" stop-color="#C75400"/>
<stop offset="0.505" stop-color="#FFD600"/>
<stop offset="1" stop-color="#CC9F00"/>
</linearGradient>
<linearGradient id="paint1_linear_11908_5765" x1="60" y1="3" x2="60" y2="51" gradientUnits="userSpaceOnUse">
<stop stop-color="#FF9900"/>
<stop offset="0.265" stop-color="#FFE600"/>
<stop offset="0.425" stop-color="#E65300"/>
<stop offset="0.695" stop-color="#FF8A00"/>
<stop offset="1" stop-color="#C34600"/>
</linearGradient>
<linearGradient id="paint2_linear_11908_5765" x1="60" y1="3" x2="60" y2="51" gradientUnits="userSpaceOnUse">
<stop stop-color="#FFD600"/>
<stop offset="0.275" stop-color="#C75400"/>
<stop offset="0.505" stop-color="#FFD600"/>
<stop offset="1" stop-color="#CC9F00"/>
</linearGradient>
<linearGradient id="paint3_linear_11908_5765" x1="60" y1="3" x2="60" y2="51" gradientUnits="userSpaceOnUse">
<stop stop-color="#FFF500"/>
<stop offset="0.265" stop-color="#A85000"/>
<stop offset="0.425" stop-color="#FFD600"/>
<stop offset="0.695" stop-color="#A93300"/>
<stop offset="1" stop-color="#FFF500"/>
</linearGradient>
<linearGradient id="paint4_linear_11908_5765" x1="100" y1="27" x2="100" y2="59" gradientUnits="userSpaceOnUse">
<stop stop-color="#FFD600"/>
<stop offset="0.275" stop-color="#C75400"/>
<stop offset="0.505" stop-color="#FFD600"/>
<stop offset="1" stop-color="#CC9F00"/>
</linearGradient>
<linearGradient id="paint5_linear_11908_5765" x1="100" y1="27" x2="100" y2="59" gradientUnits="userSpaceOnUse">
<stop stop-color="#FF9900"/>
<stop offset="0.265" stop-color="#FFE600"/>
<stop offset="0.425" stop-color="#E65300"/>
<stop offset="0.695" stop-color="#FF8A00"/>
<stop offset="1" stop-color="#C34600"/>
</linearGradient>
<linearGradient id="paint6_linear_11908_5765" x1="100" y1="27" x2="100" y2="59" gradientUnits="userSpaceOnUse">
<stop stop-color="#FFD600"/>
<stop offset="0.275" stop-color="#C75400"/>
<stop offset="0.505" stop-color="#FFD600"/>
<stop offset="1" stop-color="#CC9F00"/>
</linearGradient>
<linearGradient id="paint7_linear_11908_5765" x1="100" y1="27" x2="100" y2="59" gradientUnits="userSpaceOnUse">
<stop stop-color="#FFF500"/>
<stop offset="0.265" stop-color="#A85000"/>
<stop offset="0.425" stop-color="#FFD600"/>
<stop offset="0.695" stop-color="#A93300"/>
<stop offset="1" stop-color="#FFF500"/>
</linearGradient>
<linearGradient id="paint8_linear_11908_5765" x1="20" y1="27" x2="20" y2="59" gradientUnits="userSpaceOnUse">
<stop stop-color="#FFD600"/>
<stop offset="0.275" stop-color="#C75400"/>
<stop offset="0.505" stop-color="#FFD600"/>
<stop offset="1" stop-color="#CC9F00"/>
</linearGradient>
<linearGradient id="paint9_linear_11908_5765" x1="20" y1="27" x2="20" y2="59" gradientUnits="userSpaceOnUse">
<stop stop-color="#FF9900"/>
<stop offset="0.265" stop-color="#FFE600"/>
<stop offset="0.425" stop-color="#E65300"/>
<stop offset="0.695" stop-color="#FF8A00"/>
<stop offset="1" stop-color="#C34600"/>
</linearGradient>
<linearGradient id="paint10_linear_11908_5765" x1="20" y1="27" x2="20" y2="59" gradientUnits="userSpaceOnUse">
<stop stop-color="#FFD600"/>
<stop offset="0.275" stop-color="#C75400"/>
<stop offset="0.505" stop-color="#FFD600"/>
<stop offset="1" stop-color="#CC9F00"/>
</linearGradient>
<linearGradient id="paint11_linear_11908_5765" x1="20" y1="27" x2="20" y2="59" gradientUnits="userSpaceOnUse">
<stop stop-color="#FFF500"/>
<stop offset="0.265" stop-color="#A85000"/>
<stop offset="0.425" stop-color="#FFD600"/>
<stop offset="0.695" stop-color="#A93300"/>
<stop offset="1" stop-color="#FFF500"/>
</linearGradient>
</defs>
</svg>
